<svg width="347" height="81" viewBox="0 0 347 81" fill="none" xmlns="http://www.w3.org/2000/svg">
<path d="M43.7624 68.9444H0L29.9867 12L60 68.9748H49.9607L29.9376 30.9916L26.8454 36.8562L35.8863 54.0854H17.7629L14.9896 59.3422H38.7012L43.7624 68.9444Z" fill="#666666"/>
<path d="M76.05 56V22.9H90C91.9667 22.9 93.85 23.2833 95.65 24.05C97.4833 24.7833 99.1167 25.8667 100.55 27.3C101.983 28.7333 103.117 30.4667 103.95 32.5C104.783 34.5333 105.2 36.85 105.2 39.45C105.2 42.05 104.783 44.3667 103.95 46.4C103.117 48.4333 101.983 50.1667 100.55 51.6C99.1167 53.0333 97.4833 54.1333 95.65 54.9C93.85 55.6333 91.9667 56 90 56H76.05ZM79.8 52.45H89.85C92.2167 52.45 94.2667 51.85 96 50.65C97.7333 49.45 99.0667 47.8667 100 45.9C100.967 43.9333 101.45 41.7833 101.45 39.45C101.45 37.0833 100.967 34.9167 100 32.95C99.0667 30.9833 97.7333 29.4167 96 28.25C94.2667 27.05 92.2167 26.45 89.85 26.45H79.8V52.45ZM121.506 56.4C118.973 56.4 116.756 55.8333 114.856 54.7C112.956 53.5333 111.473 51.9667 110.406 50C109.373 48.0333 108.856 45.8667 108.856 43.5C108.856 41.1 109.356 38.9333 110.356 37C111.356 35.0333 112.79 33.4833 114.656 32.35C116.523 31.1833 118.723 30.6 121.256 30.6C123.823 30.6 126.023 31.1833 127.856 32.35C129.723 33.4833 131.156 35.0333 132.156 37C133.156 38.9333 133.656 41.1 133.656 43.5V45H112.706C112.906 46.4667 113.373 47.8167 114.106 49.05C114.873 50.25 115.89 51.2167 117.156 51.95C118.423 52.65 119.89 53 121.556 53C123.323 53 124.806 52.6167 126.006 51.85C127.206 51.05 128.14 50.0333 128.806 48.8H132.906C132.04 51.0333 130.656 52.8667 128.756 54.3C126.89 55.7 124.473 56.4 121.506 56.4ZM112.756 41.5H129.756C129.423 39.3667 128.523 37.5833 127.056 36.15C125.59 34.7167 123.656 34 121.256 34C118.856 34 116.923 34.7167 115.456 36.15C114.023 37.5833 113.123 39.3667 112.756 41.5ZM145.038 56L135.238 31H139.338L147.238 52L155.088 31H159.188L149.438 56H145.038ZM173.313 56.4C170.78 56.4 168.563 55.8333 166.663 54.7C164.763 53.5333 163.28 51.9667 162.213 50C161.18 48.0333 160.663 45.8667 160.663 43.5C160.663 41.1 161.163 38.9333 162.163 37C163.163 35.0333 164.596 33.4833 166.463 32.35C168.33 31.1833 170.53 30.6 173.063 30.6C175.63 30.6 177.83 31.1833 179.663 32.35C181.53 33.4833 182.963 35.0333 183.963 37C184.963 38.9333 185.463 41.1 185.463 43.5V45H164.513C164.713 46.4667 165.18 47.8167 165.913 49.05C166.68 50.25 167.696 51.2167 168.963 51.95C170.23 52.65 171.696 53 173.363 53C175.13 53 176.613 52.6167 177.813 51.85C179.013 51.05 179.946 50.0333 180.613 48.8H184.713C183.846 51.0333 182.463 52.8667 180.563 54.3C178.696 55.7 176.28 56.4 173.313 56.4ZM164.563 41.5H181.563C181.23 39.3667 180.33 37.5833 178.863 36.15C177.396 34.7167 175.463 34 173.063 34C170.663 34 168.73 34.7167 167.263 36.15C165.83 37.5833 164.93 39.3667 164.563 41.5ZM190.045 56V21H193.795V56H190.045ZM211.149 56.4C208.615 56.4 206.415 55.8333 204.549 54.7C202.682 53.5333 201.249 51.9667 200.249 50C199.249 48.0333 198.749 45.8667 198.749 43.5C198.749 41.1 199.249 38.9333 200.249 37C201.249 35.0333 202.682 33.4833 204.549 32.35C206.415 31.1833 208.615 30.6 211.149 30.6C213.715 30.6 215.915 31.1833 217.749 32.35C219.615 33.4833 221.049 35.0333 222.049 37C223.049 38.9333 223.549 41.1 223.549 43.5C223.549 45.8667 223.049 48.0333 222.049 50C221.049 51.9667 219.615 53.5333 217.749 54.7C215.915 55.8333 213.715 56.4 211.149 56.4ZM211.149 53C213.015 53 214.582 52.5667 215.849 51.7C217.149 50.8333 218.132 49.6833 218.799 48.25C219.465 46.7833 219.799 45.2 219.799 43.5C219.799 41.7667 219.465 40.1833 218.799 38.75C218.132 37.3167 217.149 36.1667 215.849 35.3C214.582 34.4333 213.015 34 211.149 34C209.315 34 207.749 34.4333 206.449 35.3C205.149 36.1667 204.165 37.3167 203.499 38.75C202.832 40.1833 202.499 41.7667 202.499 43.5C202.499 45.2 202.832 46.7833 203.499 48.25C204.165 49.6833 205.149 50.8333 206.449 51.7C207.749 52.5667 209.315 53 211.149 53ZM228.521 65.9V31H232.271V35C233.205 33.6333 234.405 32.5667 235.871 31.8C237.371 31 239.155 30.6 241.221 30.6C243.655 30.6 245.771 31.1833 247.571 32.35C249.405 33.4833 250.821 35.0333 251.821 37C252.821 38.9333 253.321 41.1 253.321 43.5C253.321 45.8667 252.821 48.0333 251.821 50C250.821 51.9667 249.405 53.5333 247.571 54.7C245.771 55.8333 243.655 56.4 241.221 56.4C239.155 56.4 237.371 56 235.871 55.2C234.405 54.3667 233.205 53.2833 232.271 51.95V65.9H228.521ZM240.721 53C242.588 53 244.171 52.5667 245.471 51.7C246.805 50.8333 247.821 49.6833 248.521 48.25C249.221 46.7833 249.571 45.2 249.571 43.5C249.571 41.7667 249.221 40.1833 248.521 38.75C247.821 37.3167 246.805 36.1667 245.471 35.3C244.171 34.4333 242.588 34 240.721 34C238.888 34 237.321 34.4333 236.021 35.3C234.721 36.1667 233.738 37.3167 233.071 38.75C232.405 40.1833 232.071 41.7667 232.071 43.5C232.071 45.2 232.405 46.7833 233.071 48.25C233.738 49.6833 234.721 50.8333 236.021 51.7C237.321 52.5667 238.888 53 240.721 53ZM255.158 56L269.208 22.9H273.908L287.958 56H283.808L279.758 46.4H263.358L259.308 56H255.158ZM264.808 42.95H278.308L271.558 26.8L264.808 42.95ZM292.163 56V22.9H308.013C311.413 22.9 314.113 23.8333 316.113 25.7C318.147 27.5667 319.163 30.0833 319.163 33.25C319.163 35.3833 318.747 37.0833 317.913 38.35C317.113 39.6167 316.097 40.5833 314.863 41.25C313.63 41.8833 312.397 42.35 311.163 42.65L319.863 56H315.413L307.413 43.3H295.913V56H292.163ZM295.913 39.75H307.363C308.563 39.75 309.78 39.5667 311.013 39.2C312.247 38.8333 313.28 38.1833 314.113 37.25C314.98 36.2833 315.413 34.95 315.413 33.25C315.413 31.15 314.697 29.5 313.263 28.3C311.83 27.0667 309.93 26.45 307.563 26.45H295.913V39.75Z" fill="#666666"/>
</svg>
