<svg width="340" height="81" viewBox="0 0 340 81" fill="none" xmlns="http://www.w3.org/2000/svg">
<path d="M35.0099 62.5555H0L23.9894 17L48 62.5798H39.9686L23.9501 32.1933L21.4763 36.885L28.709 50.6683H14.2103L11.9917 54.8738H30.9609L35.0099 62.5555Z" fill="#666666"/>
<path d="M69.05 56V22.9H83C84.9667 22.9 86.85 23.2833 88.65 24.05C90.4833 24.7833 92.1167 25.8667 93.55 27.3C94.9833 28.7333 96.1167 30.4667 96.95 32.5C97.7833 34.5333 98.2 36.85 98.2 39.45C98.2 42.05 97.7833 44.3667 96.95 46.4C96.1167 48.4333 94.9833 50.1667 93.55 51.6C92.1167 53.0333 90.4833 54.1333 88.65 54.9C86.85 55.6333 84.9667 56 83 56H69.05ZM72.8 52.45H82.85C85.2167 52.45 87.2667 51.85 89 50.65C90.7333 49.45 92.0667 47.8667 93 45.9C93.9667 43.9333 94.45 41.7833 94.45 39.45C94.45 37.0833 93.9667 34.9167 93 32.95C92.0667 30.9833 90.7333 29.4167 89 28.25C87.2667 27.05 85.2167 26.45 82.85 26.45H72.8V52.45ZM114.506 56.4C111.973 56.4 109.756 55.8333 107.856 54.7C105.956 53.5333 104.473 51.9667 103.406 50C102.373 48.0333 101.856 45.8667 101.856 43.5C101.856 41.1 102.356 38.9333 103.356 37C104.356 35.0333 105.79 33.4833 107.656 32.35C109.523 31.1833 111.723 30.6 114.256 30.6C116.823 30.6 119.023 31.1833 120.856 32.35C122.723 33.4833 124.156 35.0333 125.156 37C126.156 38.9333 126.656 41.1 126.656 43.5V45H105.706C105.906 46.4667 106.373 47.8167 107.106 49.05C107.873 50.25 108.89 51.2167 110.156 51.95C111.423 52.65 112.89 53 114.556 53C116.323 53 117.806 52.6167 119.006 51.85C120.206 51.05 121.14 50.0333 121.806 48.8H125.906C125.04 51.0333 123.656 52.8667 121.756 54.3C119.89 55.7 117.473 56.4 114.506 56.4ZM105.756 41.5H122.756C122.423 39.3667 121.523 37.5833 120.056 36.15C118.59 34.7167 116.656 34 114.256 34C111.856 34 109.923 34.7167 108.456 36.15C107.023 37.5833 106.123 39.3667 105.756 41.5ZM138.038 56L128.238 31H132.338L140.238 52L148.088 31H152.188L142.438 56H138.038ZM166.313 56.4C163.78 56.4 161.563 55.8333 159.663 54.7C157.763 53.5333 156.28 51.9667 155.213 50C154.18 48.0333 153.663 45.8667 153.663 43.5C153.663 41.1 154.163 38.9333 155.163 37C156.163 35.0333 157.596 33.4833 159.463 32.35C161.33 31.1833 163.53 30.6 166.063 30.6C168.63 30.6 170.83 31.1833 172.663 32.35C174.53 33.4833 175.963 35.0333 176.963 37C177.963 38.9333 178.463 41.1 178.463 43.5V45H157.513C157.713 46.4667 158.18 47.8167 158.913 49.05C159.68 50.25 160.696 51.2167 161.963 51.95C163.23 52.65 164.696 53 166.363 53C168.13 53 169.613 52.6167 170.813 51.85C172.013 51.05 172.946 50.0333 173.613 48.8H177.713C176.846 51.0333 175.463 52.8667 173.563 54.3C171.696 55.7 169.28 56.4 166.313 56.4ZM157.563 41.5H174.563C174.23 39.3667 173.33 37.5833 171.863 36.15C170.396 34.7167 168.463 34 166.063 34C163.663 34 161.73 34.7167 160.263 36.15C158.83 37.5833 157.93 39.3667 157.563 41.5ZM183.045 56V21H186.795V56H183.045ZM204.149 56.4C201.615 56.4 199.415 55.8333 197.549 54.7C195.682 53.5333 194.249 51.9667 193.249 50C192.249 48.0333 191.749 45.8667 191.749 43.5C191.749 41.1 192.249 38.9333 193.249 37C194.249 35.0333 195.682 33.4833 197.549 32.35C199.415 31.1833 201.615 30.6 204.149 30.6C206.715 30.6 208.915 31.1833 210.749 32.35C212.615 33.4833 214.049 35.0333 215.049 37C216.049 38.9333 216.549 41.1 216.549 43.5C216.549 45.8667 216.049 48.0333 215.049 50C214.049 51.9667 212.615 53.5333 210.749 54.7C208.915 55.8333 206.715 56.4 204.149 56.4ZM204.149 53C206.015 53 207.582 52.5667 208.849 51.7C210.149 50.8333 211.132 49.6833 211.799 48.25C212.465 46.7833 212.799 45.2 212.799 43.5C212.799 41.7667 212.465 40.1833 211.799 38.75C211.132 37.3167 210.149 36.1667 208.849 35.3C207.582 34.4333 206.015 34 204.149 34C202.315 34 200.749 34.4333 199.449 35.3C198.149 36.1667 197.165 37.3167 196.499 38.75C195.832 40.1833 195.499 41.7667 195.499 43.5C195.499 45.2 195.832 46.7833 196.499 48.25C197.165 49.6833 198.149 50.8333 199.449 51.7C200.749 52.5667 202.315 53 204.149 53ZM221.521 65.9V31H225.271V35C226.205 33.6333 227.405 32.5667 228.871 31.8C230.371 31 232.155 30.6 234.221 30.6C236.655 30.6 238.771 31.1833 240.571 32.35C242.405 33.4833 243.821 35.0333 244.821 37C245.821 38.9333 246.321 41.1 246.321 43.5C246.321 45.8667 245.821 48.0333 244.821 50C243.821 51.9667 242.405 53.5333 240.571 54.7C238.771 55.8333 236.655 56.4 234.221 56.4C232.155 56.4 230.371 56 228.871 55.2C227.405 54.3667 226.205 53.2833 225.271 51.95V65.9H221.521ZM233.721 53C235.588 53 237.171 52.5667 238.471 51.7C239.805 50.8333 240.821 49.6833 241.521 48.25C242.221 46.7833 242.571 45.2 242.571 43.5C242.571 41.7667 242.221 40.1833 241.521 38.75C240.821 37.3167 239.805 36.1667 238.471 35.3C237.171 34.4333 235.588 34 233.721 34C231.888 34 230.321 34.4333 229.021 35.3C227.721 36.1667 226.738 37.3167 226.071 38.75C225.405 40.1833 225.071 41.7667 225.071 43.5C225.071 45.2 225.405 46.7833 226.071 48.25C226.738 49.6833 227.721 50.8333 229.021 51.7C230.321 52.5667 231.888 53 233.721 53ZM261.808 56.4C259.374 56.4 257.241 55.8333 255.408 54.7C253.608 53.5333 252.208 51.9667 251.208 50C250.208 48.0333 249.708 45.8667 249.708 43.5C249.708 41.1 250.208 38.9333 251.208 37C252.208 35.0333 253.608 33.4833 255.408 32.35C257.241 31.1833 259.374 30.6 261.808 30.6C263.874 30.6 265.641 31 267.108 31.8C268.608 32.6 269.824 33.6833 270.758 35.05V31H274.508V56H270.758V52C269.824 53.3333 268.608 54.4 267.108 55.2C265.641 56 263.874 56.4 261.808 56.4ZM262.308 53C264.174 53 265.741 52.5667 267.008 51.7C268.308 50.8333 269.291 49.6833 269.958 48.25C270.624 46.7833 270.958 45.2 270.958 43.5C270.958 41.7667 270.624 40.1833 269.958 38.75C269.291 37.3167 268.308 36.1667 267.008 35.3C265.741 34.4333 264.174 34 262.308 34C260.474 34 258.891 34.4333 257.558 35.3C256.224 36.1667 255.208 37.3167 254.508 38.75C253.808 40.1833 253.458 41.7667 253.458 43.5C253.458 45.2 253.808 46.7833 254.508 48.25C255.208 49.6833 256.224 50.8333 257.558 51.7C258.891 52.5667 260.474 53 262.308 53ZM280.994 56V31H284.744V37.15C284.877 36.7167 285.127 36.15 285.494 35.45C285.894 34.7167 286.461 33.9833 287.194 33.25C287.927 32.5167 288.844 31.9 289.944 31.4C291.077 30.8667 292.411 30.6 293.944 30.6H294.194V34.35H293.744C291.877 34.35 290.261 34.8667 288.894 35.9C287.561 36.9 286.527 38.2167 285.794 39.85C285.094 41.45 284.744 43.1667 284.744 45V56H280.994Z" fill="#666666"/>
</svg>
